<svg xmlns="http://www.w3.org/2000/svg" width="23.237" height="40" viewBox="0 0 23.237 40">
  <path id="Icon_-_spoon" data-name="Icon - spoon" d="M124.237,4.066v.793a.747.747,0,1,1-1.494,0V4.066a2.573,2.573,0,0,0-5.145,0V31.59A8.3,8.3,0,1,1,101,31.7V29.046a.747.747,0,0,1,.747-.747h11.67a.747.747,0,0,1,0,1.494H102.494V31.7a6.805,6.805,0,1,0,13.61-.111V4.066a4.066,4.066,0,0,1,8.133,0ZM106.63,34.093a.747.747,0,1,0-1.113,1,5.542,5.542,0,0,0,1.769,1.321.747.747,0,1,0,.638-1.35A4.053,4.053,0,0,1,106.63,34.093Z" transform="translate(-101)"/>
</svg>
