<svg xmlns="http://www.w3.org/2000/svg" width="40" height="40" viewBox="0 0 40 40">
  <path id="Icon_-_apron" data-name="Icon - apron" d="M32.863,19.087h-.747A5.317,5.317,0,0,1,26.8,13.776v-3.9a.747.747,0,0,0-.747-.747H14.689V6.8a5.311,5.311,0,0,1,10.622,0,.747.747,0,1,0,1.494,0,6.8,6.8,0,0,0-13.61,0v6.971a5.317,5.317,0,0,1-5.311,5.311h-1A3.822,3.822,0,0,0,3.071,22.9v2.241A2.326,2.326,0,0,1,.747,27.469a.747.747,0,0,0,0,1.494,3.822,3.822,0,0,0,3.817-3.817V22.9A2.327,2.327,0,0,1,6.39,20.635V37.261A2.742,2.742,0,0,0,9.129,40H30.871a2.742,2.742,0,0,0,2.739-2.739V19.834A.747.747,0,0,0,32.863,19.087Zm-.747,18.174a1.246,1.246,0,0,1-1.245,1.245H9.129a1.246,1.246,0,0,1-1.245-1.245V20.581a6.813,6.813,0,0,0,6.8-6.8V10.622H25.311v3.154a6.813,6.813,0,0,0,6.8,6.8ZM40,28.216a.747.747,0,0,1-.747.747,3.822,3.822,0,0,1-3.817-3.817V22.9a2.3,2.3,0,0,0-.494-1.433.747.747,0,0,1,1.175-.922,3.78,3.78,0,0,1,.812,2.355v2.241a2.326,2.326,0,0,0,2.324,2.324A.747.747,0,0,1,40,28.216ZM24.564,22.573H15.436A2.742,2.742,0,0,0,12.7,25.311V31.12a2.742,2.742,0,0,0,2.739,2.739h9.129A2.742,2.742,0,0,0,27.3,31.12V25.311A2.742,2.742,0,0,0,24.564,22.573Zm1.245,8.548a1.246,1.246,0,0,1-1.245,1.245H15.436a1.246,1.246,0,0,1-1.245-1.245V28.963h9.295a.747.747,0,1,0,0-1.494H14.191V25.311a1.246,1.246,0,0,1,1.245-1.245h9.129a1.246,1.246,0,0,1,1.245,1.245Z"/>
</svg>
