<svg xmlns="http://www.w3.org/2000/svg" width="40" height="35.187" viewBox="0 0 40 35.187">
  <path id="Icon_-_cooking" data-name="Icon - cooking" d="M39.576,46.854,35.933,48.6v9.53a6.065,6.065,0,0,1-6.058,6.058H10.124A6.065,6.065,0,0,1,4.066,58.13V48.6L.424,46.854a.747.747,0,0,1,.646-1.347l3,1.437V42.612h-.83a.747.747,0,1,1,0-1.494H36.763a.747.747,0,0,1,0,1.494H5.56V56.166H31.452a.747.747,0,0,1,0,1.494H5.56v.47a4.569,4.569,0,0,0,4.564,4.564H29.875a4.569,4.569,0,0,0,4.564-4.564V44.6a.747.747,0,0,1,1.494,0v2.34l3-1.437a.747.747,0,1,1,.646,1.347ZM4.066,36.969V35.143a3.406,3.406,0,0,1,3.4-3.4H32.531a3.406,3.406,0,0,1,3.4,3.4v1.826a.747.747,0,0,1-.747.747H4.813A.747.747,0,0,1,4.066,36.969Zm1.494-.747H34.439V35.143a1.911,1.911,0,0,0-1.909-1.909H7.469A1.911,1.911,0,0,0,5.56,35.143ZM18.34,30.5H21.66a.747.747,0,1,0,0-1.494H18.34a.747.747,0,1,0,0,1.494Z" transform="translate(0 -29.002)"/>
</svg>
